# Blender v2.78 (sub 0) OBJ File: 'Developer_Logo_Neon2 V0.2.blend'
# www.blender.org
o OuterRing_Mesh.004
v 0.005194 -0.007084 0.006206
v -0.003141 0.007767 -0.006124
v 0.008112 0.005489 0.007529
v 2.004859 -0.008141 -0.003072
v 1.961078 0.002275 0.009031
v 2.008697 0.002713 -0.008557
v 1.999191 0.009484 0.001180
v 1.994917 -0.007684 0.004634
v 1.990526 0.001775 0.035543
v 2.004465 -0.008122 1.701641
v 1.991793 -0.006172 1.690340
v 2.009085 -0.001414 1.668145
v 2.000308 0.009524 1.698753
v 1.955530 0.000631 1.707006
v 1.961942 0.004824 1.689339
v 0.006258 0.006600 1.689199
v -0.006288 -0.006474 1.705662
v -0.004393 0.008250 1.700764
v 0.004757 -0.007960 1.692920
v -0.009123 0.000731 1.662975
v 0.009441 0.001775 1.661777
v -0.004751 -0.007700 -0.005517
v -0.009361 -0.000000 0.026657
vn 0.0166 0.2041 0.9788
vn 0.4177 0.8015 0.4278
vn 0.2821 -0.9235 0.2597
vn 0.4693 -0.7804 -0.4132
vn -0.5575 -0.5845 -0.5895
vn 0.6753 0.2159 -0.7053
vn -0.4762 0.6333 -0.6100
vn -0.3170 -0.8891 0.3301
vn -0.9784 0.2056 -0.0208
vn 0.0489 0.9975 -0.0507
vn 0.9991 0.0364 0.0205
vn 0.5992 -0.5282 0.6016
vn 0.3764 0.8413 0.3880
vn -0.4302 -0.7196 -0.5450
vn 0.0115 0.1016 0.9948
vn 0.0177 0.4850 -0.8743
vn 0.4291 0.8357 -0.3427
vn -0.5031 0.7213 0.4761
vn -0.5838 -0.4360 0.6848
vn -0.9955 0.0943 0.0061
vn 0.1796 -0.9652 -0.1900
vn 0.9979 0.0631 0.0104
vn -0.9976 0.0674 -0.0153
s 1
f 5//1 3//2 1//3
f 4//4 1//3 22//5
f 6//6 22//5 2//7
f 8//8 9//9 7//10
f 12//11 4//4 6//6
f 10//12 8//8 4//4
f 7//10 13//13 6//6
f 9//9 13//13 7//10
f 8//8 11//14 9//9
f 13//13 14//15 10//12
f 11//14 15//16 13//13
f 16//17 15//16 11//14
f 18//18 14//15 13//13
f 16//17 13//13 15//16
f 17//19 10//12 14//15
f 18//18 20//20 17//19
f 19//21 21//22 16//17
f 2//7 18//18 16//17
f 23//23 17//19 20//20
f 3//2 2//7 16//17
f 18//18 23//23 20//20
f 21//22 3//2 16//17
f 19//21 3//2 21//22
f 3//2 7//10 2//7
f 4//4 8//8 1//3
f 7//10 6//6 2//7
f 5//1 7//10 3//2
f 8//8 5//1 1//3
f 6//6 4//4 22//5
f 5//1 8//8 7//10
f 10//12 11//14 8//8
f 6//6 13//13 12//11
f 9//9 11//14 13//13
f 4//4 12//11 10//12
f 12//11 13//13 10//12
f 16//17 18//18 13//13
f 10//12 19//21 11//14
f 17//19 19//21 10//12
f 18//18 17//19 14//15
f 19//21 16//17 11//14
f 22//5 1//3 19//21
f 17//19 22//5 19//21
f 18//18 2//7 23//23
f 19//21 1//3 3//2
f 17//19 23//23 22//5
f 23//23 2//7 22//5
